<svg width="14" height="15" viewBox="0 0 14 15" fill="none" xmlns="http://www.w3.org/2000/svg">
<path d="M8.65498 5.84511C10.0553 7.24688 10.0361 9.49427 8.66342 10.8745C8.66084 10.8774 8.65779 10.8804 8.65498 10.8832L7.07998 12.4582C5.69084 13.8474 3.43079 13.8472 2.04186 12.4582C0.652715 11.0693 0.652715 8.80901 2.04186 7.4201L2.91153 6.55043C3.14215 6.31981 3.53932 6.47309 3.55123 6.79901C3.56642 7.21437 3.6409 7.63167 3.77834 8.03466C3.82489 8.17111 3.79163 8.32205 3.68968 8.424L3.38295 8.73072C2.72609 9.38758 2.70549 10.4571 3.35588 11.1204C4.01269 11.7902 5.09227 11.7942 5.75412 11.1324L7.32912 9.5576C7.98985 8.89687 7.98708 7.82892 7.32912 7.17096C7.24238 7.08438 7.155 7.01712 7.08675 6.97013C7.03847 6.93697 6.99861 6.89299 6.97034 6.84169C6.94207 6.7904 6.92618 6.7332 6.92393 6.67467C6.91465 6.42701 7.0024 6.1718 7.19811 5.9761L7.69156 5.48262C7.82096 5.35322 8.02395 5.33733 8.174 5.44205C8.34583 5.56204 8.50678 5.69691 8.65498 5.84511ZM11.9581 2.54178C10.5692 1.15283 8.30916 1.15265 6.92002 2.54178L5.34502 4.11678C5.34221 4.11959 5.33916 4.12264 5.33658 4.12545C3.96394 5.50573 3.9447 7.75312 5.34502 9.1549C5.49321 9.30308 5.65415 9.43795 5.82598 9.55793C5.97603 9.66264 6.17904 9.64673 6.30842 9.51736L6.80187 9.02388C6.99758 8.82818 7.08533 8.57297 7.07604 8.3253C7.0738 8.26678 7.05791 8.20958 7.02964 8.15828C7.00137 8.10699 6.96151 8.06301 6.91322 8.02985C6.84497 7.98286 6.7576 7.91559 6.67086 7.82901C6.0129 7.17106 6.01013 6.1031 6.67086 5.44238L8.24586 3.86762C8.90771 3.20577 9.98726 3.20975 10.6441 3.87957C11.2945 4.54285 11.2739 5.61239 10.617 6.26925L10.3103 6.57598C10.2084 6.67793 10.1751 6.82887 10.2216 6.96532C10.3591 7.36831 10.4336 7.78561 10.4487 8.20097C10.4607 8.52689 10.8578 8.68017 11.0885 8.44955L11.9581 7.57987C13.3473 6.19099 13.3473 3.93069 11.9581 2.54178Z" fill="#666666"/>
</svg>
